<?xml version="1.0" encoding="utf-8"?>
<!-- Generator: Adobe Illustrator 24.1.0, SVG Export Plug-In . SVG Version: 6.00 Build 0)  -->
<svg version="1.1" id="Layer_1" xmlns="http://www.w3.org/2000/svg" xmlns:xlink="http://www.w3.org/1999/xlink" x="0px" y="0px"
	 viewBox="0 0 500 500" style="enable-background:new 0 0 500 500;" xml:space="preserve">
<style type="text/css">
	.st0{clip-path:url(#SVGID_2_);fill:#73C48F;}
	.st1{clip-path:url(#SVGID_2_);fill:#FFEC00;}
	.st2{clip-path:url(#SVGID_2_);fill:#0058A4;}
	.st3{clip-path:url(#SVGID_4_);fill:#25408F;}
	.st4{clip-path:url(#SVGID_4_);fill:#73C48F;}
	.st5{clip-path:url(#SVGID_6_);fill:#0058A4;}
	.st6{fill:#FEEB04;}
	.st7{clip-path:url(#SVGID_8_);fill:#FEEB04;}
</style>
<g>
	<defs>
		<rect id="SVGID_3_" x="67.8" y="73.3" width="364.4" height="353.4"/>
	</defs>
	<clipPath id="SVGID_2_">
		<use xlink:href="#SVGID_3_"  style="overflow:visible;"/>
	</clipPath>
	<path style="clip-path:url(#SVGID_2_);fill:#25408F;" d="M421.2,371.5H121.6V84.3c0-6.1-4.9-11-11-11c-6.1,0-11,4.9-11,11v287.1
		H78.8c-6.1,0-11,4.9-11,11c0,6.1,4.9,11,11,11h20.7v22.1c0,6.1,4.9,11,11,11c6.1,0,11-4.9,11-11v-22.1h299.6c6.1,0,11-4.9,11-11
		C432.2,376.4,427.3,371.5,421.2,371.5"/>
	<path class="st0" d="M166.3,293.7c-6.1,0-11,4.9-11,11v33.1c0,6.1,4.9,11,11,11h22.1c6.1,0,11-4.9,11-11v-33.1c0-6.1-4.9-11-11-11
		H166.3z"/>
	<path class="st0" d="M365,194.3c-6.1,0-11,4.9-11,11v132.5c0,6.1,4.9,11,11,11h22.1c6.1,0,11-4.9,11-11V205.4c0-6.1-4.9-11-11-11
		H365z"/>
	<path class="st0" d="M298.8,216.4c-6.1,0-11,4.9-11,11v110.4c0,6.1,4.9,11,11,11h22.1c6.1,0,11-4.9,11-11V227.5c0-6.1-4.9-11-11-11
		H298.8z"/>
	<path class="st0" d="M232.5,271.6c-6.1,0-11,4.9-11,11v55.2c0,6.1,4.9,11,11,11h22.1c6.1,0,11-4.9,11-11v-55.2c0-6.1-4.9-11-11-11
		H232.5z"/>
	<path class="st0" d="M412.8,80.6c-4.3-4.3-11.3-4.3-15.6,0l-91,91h-61.7c-2.9,0-5.7,1.2-7.8,3.2l-67,67c-4.3,4.3-4.3,11.3,0,15.6
		c4.3,4.3,11.3,4.3,15.6,0l63.7-63.7h61.7c2.9,0,5.7-1.2,7.8-3.2l94.2-94.2C417.1,91.9,417.1,84.9,412.8,80.6"/>
</g>
</svg>
