<?xml version="1.0" encoding="utf-8"?>
<!-- Generator: Adobe Illustrator 24.1.0, SVG Export Plug-In . SVG Version: 6.00 Build 0)  -->
<svg version="1.1" id="Layer_1" xmlns="http://www.w3.org/2000/svg" xmlns:xlink="http://www.w3.org/1999/xlink" x="0px" y="0px"
	 viewBox="0 0 500 500" style="enable-background:new 0 0 500 500;" xml:space="preserve">
<style type="text/css">
	.st0{clip-path:url(#SVGID_2_);fill:#73C48F;}
	.st1{clip-path:url(#SVGID_2_);fill:#FFEC00;}
	.st2{clip-path:url(#SVGID_2_);fill:#0058A4;}
	.st3{clip-path:url(#SVGID_4_);fill:#25408F;}
	.st4{clip-path:url(#SVGID_4_);fill:#73C48F;}
	.st5{clip-path:url(#SVGID_6_);fill:#0058A4;}
	.st6{fill:#FEEB04;}
	.st7{clip-path:url(#SVGID_8_);fill:#FEEB04;}
</style>
<g>
	<g>
		<defs>
			<rect id="SVGID_5_" x="132.9" y="49.8" width="260.4" height="400.4"/>
		</defs>
		<clipPath id="SVGID_2_">
			<use xlink:href="#SVGID_5_"  style="overflow:visible;"/>
		</clipPath>
		<path class="st2" d="M214.8,344.6h136.3v16.1H214.8V344.6z M214.8,309.2h136.3v16.1H214.8V309.2z M214.8,273.6h136.3v16.1H214.8
			V273.6z M337.4,65.9H149v302.4l23.7,9.3V88.1h164.7V65.9z M377.2,104.2H188.8v302.4l59.2,23.4l46.6-29.9l23.2,19.2l33.8-20.2
			l25.5,19V104.2z M353.5,88.1h39.8v362.1l-42.6-31.8l-34.3,20.5L293.4,420l-43.6,28.1c-25.7-10.2-51.4-20.3-77.1-30.5V395
			l-39.8-15.7V49.8h220.6V88.1z"/>
	</g>
	<polygon class="st6" points="264.3,252.5 280,205.7 240.5,205.7 300.4,140 284.6,186.7 324.1,186.7 	"/>
	<g>
		<defs>
			<rect id="SVGID_7_" x="132.9" y="49.8" width="260.4" height="400.4"/>
		</defs>
		<clipPath id="SVGID_4_">
			<use xlink:href="#SVGID_7_"  style="overflow:visible;"/>
		</clipPath>
		<path style="clip-path:url(#SVGID_4_);fill:#FEEB04;" d="M266.9,253.3c0.5-1.6,1-3.1,1.6-4.6c1.3-3.7,2.5-7.4,3.8-11.2
			c1.5-4.5,3.1-9,4.6-13.6c1.3-3.9,2.6-7.8,3.9-11.7c0.6-1.9,1.4-3.8,1.9-5.7c0,0,0-0.1,0-0.1c0.6-1.7-0.9-3.4-2.6-3.4h-13.4h-21.3
			h-4.9c0.6,1.5,1.3,3.1,1.9,4.6c2-2.2,4-4.4,6-6.6c4.8-5.2,9.6-10.5,14.3-15.8c5.7-6.3,11.5-12.6,17.2-18.9c5-5.5,10-11,15-16.5
			c2.4-2.6,4.9-5.2,7.2-8c0,0,0.1-0.1,0.1-0.1c-1.5-0.9-3-1.7-4.5-2.6c-0.5,1.6-1,3.1-1.6,4.6c-1.3,3.7-2.5,7.4-3.8,11.2
			c-1.5,4.5-3.1,9-4.6,13.6c-1.3,3.9-2.6,7.8-3.9,11.7c-0.6,1.9-1.4,3.8-1.9,5.7c0,0,0,0.1,0,0.1c-0.6,1.7,0.9,3.4,2.6,3.4H298h21.3
			h4.8c-0.6-1.5-1.3-3-1.9-4.6c-2,2.2-4,4.4-6,6.6c-4.8,5.2-9.6,10.5-14.3,15.8c-5.7,6.3-11.5,12.6-17.2,18.9c-5,5.5-10,11-15,16.5
			c-2.4,2.7-4.9,5.3-7.2,8c0,0-0.1,0.1-0.1,0.1c-0.9,1-1.1,2.8,0,3.8c1,0.9,2.8,1.1,3.8,0c2-2.2,4-4.4,6-6.6
			c4.8-5.2,9.6-10.5,14.3-15.8c5.7-6.3,11.5-12.6,17.2-18.9c5-5.5,10-11,15-16.5c2.4-2.7,4.9-5.3,7.2-8c0,0,0.1-0.1,0.1-0.1
			c1.5-1.7,0.5-4.6-1.9-4.6h-13.4h-21.3h-4.8c0.9,1.1,1.7,2.3,2.6,3.4c0.5-1.6,1-3.1,1.6-4.6c1.3-3.7,2.5-7.4,3.8-11.2
			c1.5-4.5,3.1-9,4.6-13.6c1.3-3.9,2.6-7.8,3.9-11.7c0.6-1.9,1.4-3.8,1.9-5.7c0,0,0-0.1,0-0.1c0.9-2.5-2.7-4.6-4.5-2.6
			c-2,2.2-4,4.4-6,6.6c-4.8,5.2-9.6,10.5-14.3,15.8c-5.7,6.3-11.5,12.6-17.2,18.9c-5,5.5-10,11-15,16.5c-2.4,2.7-4.9,5.3-7.2,8
			c0,0-0.1,0.1-0.1,0.1c-1.5,1.7-0.5,4.6,1.9,4.6h13.4h21.3h4.8c-0.9-1.1-1.7-2.3-2.6-3.4c-0.5,1.6-1,3.1-1.6,4.6
			c-1.3,3.7-2.5,7.4-3.8,11.1c-1.5,4.5-3.1,9-4.6,13.6c-1.3,3.9-2.6,7.8-3.9,11.7c-0.6,1.9-1.4,3.8-1.9,5.7c0,0,0,0.1,0,0.1
			c-0.4,1.3,0.5,3,1.9,3.3C265,255.5,266.4,254.7,266.9,253.3"/>
	</g>
</g>
</svg>
