<?xml version="1.0" encoding="utf-8"?>
<!-- Generator: Adobe Illustrator 24.1.0, SVG Export Plug-In . SVG Version: 6.00 Build 0)  -->
<svg version="1.1" id="Layer_1" xmlns="http://www.w3.org/2000/svg" xmlns:xlink="http://www.w3.org/1999/xlink" x="0px" y="0px"
	 viewBox="0 0 500 500" style="enable-background:new 0 0 500 500;" xml:space="preserve">
<style type="text/css">
	.st0{clip-path:url(#SVGID_2_);fill:#73C48F;}
	.st1{clip-path:url(#SVGID_2_);fill:#FFEC00;}
	.st2{clip-path:url(#SVGID_2_);fill:#0058A4;}
	.st3{clip-path:url(#SVGID_4_);fill:#25408F;}
	.st4{clip-path:url(#SVGID_4_);fill:#73C48F;}
	.st5{clip-path:url(#SVGID_6_);fill:#0058A4;}
	.st6{fill:#FEEB04;}
	.st7{clip-path:url(#SVGID_8_);fill:#FEEB04;}
</style>
<g>
	<defs>
		<rect id="SVGID_1_" x="41.7" y="59.1" width="458.3" height="389.4"/>
	</defs>
	<clipPath id="SVGID_2_">
		<use xlink:href="#SVGID_1_"  style="overflow:visible;"/>
	</clipPath>
	<path class="st0" d="M325.7,281.3c-4.9,0.8-8.1,0.3-12.4-1.4c-4-1.6-7.9-3.3-12.3-3.8c-11-1.3-21.1,3-29.1,10.3
		c-3.3,3.1-5.7,5-10.1,6.1c-4.6,1.1-8.8,1.1-12.7-0.3c-4.2-1.5-8.2-3.4-12.6-4.3c-5.7-1.1-11.9-0.2-17.4,1.7
		c-5.1,1.7-9.3,4.8-13.2,8.5c-3.9,3.6-6.8,5.5-12.2,6.5c-8.3,1.6-6,14.9,2.3,13.3c5.7-1.1,10.8-3.2,15.4-6.8c1.4-1.1,2.7-2.4,4-3.6
		c1.2-1.1,3.4-2.9,4-3.3c4.2-2.5,9.4-3.6,14.3-3c3,0.4,6.7,2.2,10.2,3.5c10.5,3.9,22.6,2.4,31.8-4c3.4-2.3,6-5.5,9.4-7.9
		c2.8-2,8-3.4,12.1-3.4c4.5,0,8.1,1.9,12.7,3.7c5.9,2.2,11.9,2.6,18.1,1.6C336.5,293.2,334.1,279.9,325.7,281.3"/>
	<path class="st0" d="M332.3,318.5c-4.9,0.8-8.1,0.3-12.4-1.4c-4-1.6-7.9-3.3-12.3-3.8c-11-1.3-21.1,3-29.1,10.3
		c-3.3,3.1-5.7,5-10.1,6.1c-4.6,1.1-8.8,1.1-12.7-0.3c-4.2-1.5-8.2-3.4-12.6-4.3c-5.7-1.1-11.9-0.2-17.4,1.7
		c-5.1,1.7-9.3,4.8-13.2,8.5c-3.9,3.6-6.8,5.5-12.2,6.5c-8.3,1.6-6,14.9,2.3,13.3c5.7-1.1,10.8-3.2,15.4-6.8c1.4-1.1,2.7-2.4,4-3.6
		c1.2-1.1,3.4-2.9,4-3.3c4.2-2.5,9.4-3.6,14.3-3c3,0.4,6.7,2.2,10.2,3.5c10.5,3.9,22.6,2.4,31.8-4c3.4-2.3,6-5.5,9.4-7.9
		c2.8-2,8-3.4,12.1-3.4c4.5,0,8.1,1.9,12.7,3.7c5.9,2.2,11.9,2.6,18.1,1.6C343,330.5,340.7,317.1,332.3,318.5"/>
	<path class="st0" d="M338.8,355.8c-4.9,0.8-8.1,0.3-12.4-1.4c-4-1.6-7.9-3.3-12.3-3.8c-11-1.3-21.1,3-29.1,10.3
		c-3.3,3.1-5.7,5-10.1,6.1c-4.6,1.1-8.8,1.1-12.7-0.3c-4.2-1.5-8.2-3.4-12.6-4.3c-5.7-1.1-11.9-0.2-17.4,1.7
		c-5.1,1.7-9.3,4.8-13.2,8.5c-3.9,3.6-6.8,5.5-12.2,6.5c-8.3,1.6-6,14.9,2.3,13.3c5.7-1.1,10.8-3.2,15.4-6.8c1.4-1.1,2.7-2.4,4-3.6
		c1.2-1.1,3.4-2.9,4-3.3c4.2-2.5,9.4-3.6,14.3-3c3,0.4,6.7,2.2,10.2,3.5c10.5,3.9,22.6,2.4,31.8-4c3.4-2.3,6-5.5,9.4-7.9
		c2.8-2,8-3.4,12.1-3.4c4.5,0,8.1,1.9,12.7,3.7c5.9,2.2,11.9,2.6,18.1,1.6C349.6,367.7,347.2,354.4,338.8,355.8"/>
	<path class="st0" d="M345.4,393c-4.9,0.8-8.1,0.3-12.4-1.4c-4-1.6-7.9-3.3-12.3-3.8c-11-1.3-21.1,3-29.1,10.3
		c-3.3,3.1-5.7,5-10.1,6.1c-4.6,1.1-8.8,1.1-12.7-0.3c-4.2-1.5-8.2-3.4-12.6-4.3c-5.7-1.1-11.9-0.2-17.4,1.7
		c-5.1,1.7-9.3,4.8-13.2,8.5c-3.9,3.6-6.8,5.5-12.2,6.5c-8.3,1.6-6,14.9,2.3,13.3c5.7-1.1,10.8-3.2,15.4-6.8c1.4-1.1,2.7-2.4,4-3.6
		c1.2-1.1,3.4-2.9,4-3.3c4.2-2.5,9.4-3.6,14.3-3c3,0.4,6.7,2.2,10.2,3.5c10.5,3.9,22.6,2.4,31.8-4c3.4-2.3,6-5.5,9.4-7.9
		c2.8-2,8-3.4,12.1-3.4c4.5,0,8.1,1.9,12.7,3.7c5.9,2.2,11.9,2.6,18.1,1.6C356.2,405,353.8,391.6,345.4,393"/>
	<path class="st1" d="M353.5,162.8c-3.2-0.8-5.4-3.5-4.5-6.7c1-3.4,4.4-4.3,7.5-3.5c7.7,2.1,12.8,9.6,11.8,17.4
		c-1.1,7.7-8.1,13.7-16.2,13.7c-8.3,0-16.5-5.3-20.8-12c-9.4-14.6-1.9-34.5,15.3-39.4c16.8-4.8,35.1,7,41,22.2
		c6.2,16.1,0.3,34.8-14.7,44.2c-15.4,9.6-35.3,6.8-49.2-4.1c-13.6-10.7-20.8-28.1-17.7-44.9c3.1-17,15.5-31.5,32.5-37.1
		c17.2-5.6,36.4-1.2,50.5,9.5c13.9,10.7,22.5,27,22.9,44.2c0.1,4.3-0.3,8.6-1.2,12.9c-0.6,2.8,0.8,5.7,3.8,6.4
		c2.7,0.7,6.1-0.9,6.6-3.7c4.6-21.9-1.8-44.7-17.6-61.1c-15.5-16.1-39.5-24.6-62-20c-22.1,4.5-40.2,21.7-45.4,43
		c-5.3,21.5,2.7,44.9,20.7,58.7c18.2,13.9,44.4,17.3,63.8,3.5c19.2-13.7,25.6-38.9,15-59.6c-10.2-20-36.1-32-57.7-22.3
		c-10.5,4.7-18.5,14.5-20.9,25.5c-2.4,11.3,0.6,22.8,8.2,31.6c7.4,8.6,19.6,14.1,31.2,12.4c12-1.8,21.1-11.6,22.5-23.1
		c1.4-11.6-5.7-22.8-16.8-27.2c-5.6-2.2-12-2.4-17.2,1.1c-5.4,3.7-8,10.1-6.6,16.4c1.3,5.9,6.3,10.5,12.2,11.9
		C357.3,174.4,360.2,164.4,353.5,162.8"/>
	<path class="st1" d="M354.2,86.4c0,0-6.3-10-3-15.4c2-3.2,7.2-3.2,8.9,0.2C361.3,73.8,360.9,78.4,354.2,86.4"/>
	<path class="st1" d="M317.6,95.9c0,0-10.6-5.6-10.5-11.9c0.1-3.8,4.6-6.3,7.8-4.1C317.3,81.5,319.3,85.7,317.6,95.9"/>
	<path class="st1" d="M290.8,121.7c0,0-12.1,0.3-15.2-5.2c-1.9-3.3,0.7-7.7,4.6-7.3C283.2,109.5,287.1,112.1,290.8,121.7"/>
	<path class="st1" d="M281,157.1c0,0-10.3,6.1-15.9,2.9c-3.3-1.9-3.3-7,0.2-8.6C268,150.2,272.8,150.6,281,157.1"/>
	<path class="st1" d="M290.8,192.5c0,0-5.8,10.3-12.3,10.2c-3.9-0.1-6.5-4.5-4.2-7.6C275.9,192.8,280.3,190.9,290.8,192.5"/>
	<path class="st1" d="M317.5,218.5c0,0,0.3,11.7-5.4,14.8c-3.4,1.8-7.9-0.7-7.6-4.5C304.8,225.9,307.5,222.1,317.5,218.5"/>
	<path class="st1" d="M354,228c0,0,6.3,10,3,15.4c-2,3.2-7.2,3.2-8.9-0.2C346.9,240.5,347.3,236,354,228"/>
	<path class="st1" d="M390.6,218.5c0,0,10.6,5.6,10.5,11.9c-0.1,3.8-4.6,6.3-7.8,4.1C390.9,232.9,388.9,228.7,390.6,218.5"/>
	<path class="st1" d="M412.8,200c0,0,12.1-0.3,15.2,5.2c1.9,3.3-0.7,7.7-4.6,7.3C420.4,212.3,416.5,209.6,412.8,200"/>
	<path class="st1" d="M431.7,161.6c0,0,10.3-6.1,15.9-2.9c3.3,1.9,3.3,7-0.2,8.6C444.7,168.5,439.9,168.1,431.7,161.6"/>
	<path class="st1" d="M417.5,121.9c0,0,5.8-10.3,12.3-10.2c3.9,0.1,6.5,4.5,4.2,7.6C432.3,121.6,427.9,123.5,417.5,121.9"/>
	<path class="st1" d="M390.7,95.9c0,0-0.3-11.7,5.4-14.8c3.4-1.8,7.9,0.7,7.6,4.5C403.4,88.5,400.7,92.3,390.7,95.9"/>
	<path class="st2" d="M167.2,232.1c-3.4,20.5-19,37.8-39.5,42.3c-21.1,4.6-43-4.4-54.8-22.5c-5.5-8.4-8.4-18.6-8.2-28.6
		c0-2.6,0.3-5.3,0.8-7.9c0.1-0.8,0.3-1.6,0.5-2.3c0.1-0.3,0.4-1.4-0.1,0.1c0.2-0.5,0.3-1,0.5-1.5c1.3-3.6,3.1-7.1,5.1-10.4
		c0.1-0.1,0.7-1.2,0.2-0.3c0.3-0.4,0.6-0.9,0.8-1.3c0.6-0.9,1.2-1.8,1.8-2.6c1.2-1.8,2.5-3.6,3.9-5.3c3-3.9,6.2-7.6,9.4-11.2
		c6.3-6.9,13.1-13.6,19.5-19.5c9-8.2,18.2-16.1,27.9-23.5c-3.5-0.6-7-1.1-10.5-1.7c5.6,7.9,10.8,16.2,15.8,24.5
		c9.2,15.3,17.8,31.3,23.6,48.7c0.7,2.2,1.4,4.5,2,6.8c-0.3-1.1,0,0.2,0.1,0.3c0.2,0.7,0.3,1.4,0.5,2.2c0.2,0.9,0.4,1.9,0.5,2.8
		c0.3,2.1,0.6,4.2,0.6,6.4c0,0.4,0,0.9,0,1.3c0,1.2,0.2-1.8,0,0.1C167.4,230.1,167.3,231.1,167.2,232.1c-1.4,9.6,13.5,12,14.9,2.4
		c2.6-17.6-5.4-36.2-12.8-51.7c-7.6-16.1-16.7-31.5-26.4-46.4c-2-3.1-4.1-6.2-6.2-9.2c-2.3-3.3-7.3-4.1-10.5-1.7
		c-9.3,7-18.1,14.6-26.7,22.4c-15.5,14.1-30.9,29.1-41.7,47.2c-11.8,19.7-10,44.1,1.6,63.6c13.2,22.1,39.5,34.7,65,31.5
		c29.3-3.6,52.8-26.7,57.7-55.7C183.6,224.9,168.8,222.5,167.2,232.1"/>
</g>
</svg>
